<svg xmlns="http://www.w3.org/2000/svg" width="51" height="51" viewBox="0 0 51 51">
  <g id="Group_5412" data-name="Group 5412" transform="translate(-925 -146)">
    <rect id="Rectangle_1715" data-name="Rectangle 1715" width="51" height="51" rx="14" transform="translate(925 146)" fill="#bba8ff" opacity="0.3"/>
    <g id="Group_5336" data-name="Group 5336" transform="translate(-3.424 -0.373)">
      <path id="Icon_ionic-ios-time" data-name="Icon ionic-ios-time" d="M13.419,2.344A11.127,11.127,0,1,0,24.5,13.47,11.1,11.1,0,0,0,13.419,2.344Zm.745,12.089a.749.749,0,0,1-.745.749H8.308a.749.749,0,0,1,0-1.5h4.366V6.623a.745.745,0,1,1,1.491,0Z" transform="translate(937.081 158.029)" fill="#7c5bee"/>
      <path id="Icon_material-group" data-name="Icon material-group" d="M5.374,8.922A1.857,1.857,0,1,0,3.517,7.065,1.849,1.849,0,0,0,5.374,8.922Zm0,1.238c-1.442,0-4.332.724-4.332,2.166v1.547H9.706V12.326c0-1.442-2.89-2.166-4.332-2.166Z" transform="translate(959.202 168.415)" fill="#7c5bee"/>
    </g>
  </g>
</svg>
