<svg xmlns="http://www.w3.org/2000/svg" width="38.191" height="38.191" viewBox="0 0 38.191 38.191">
  <path id="Icon_metro-earth" data-name="Icon metro-earth" d="M21.666,1.928a19.1,19.1,0,1,0,19.1,19.1,19.1,19.1,0,0,0-19.1-19.1Zm0,35.8a16.652,16.652,0,0,1-6.61-1.359l8.7-9.782a1.194,1.194,0,0,0,.3-.793v-3.58a1.193,1.193,0,0,0-1.193-1.193c-4.214,0-8.66-4.381-8.7-4.424a1.193,1.193,0,0,0-.844-.35H8.538a1.194,1.194,0,0,0-1.193,1.193V24.6A1.193,1.193,0,0,0,8,25.671l4.114,2.057v7.007A16.719,16.719,0,0,1,6.566,13.863h4.358a1.194,1.194,0,0,0,.844-.35l4.774-4.774a1.194,1.194,0,0,0,.35-.844V5.008A16.755,16.755,0,0,1,28.986,6c-.155.131-.3.267-.449.412A7.162,7.162,0,0,0,33.6,18.637q.177,0,.355-.009a28.026,28.026,0,0,1-.313,13.886,1.19,1.19,0,0,0-.031.195,16.656,16.656,0,0,1-11.94,5.022Z" transform="translate(-2.571 -1.928)" fill="#0896ff"/>
</svg>
