<svg id="Group_250" data-name="Group 250" xmlns="http://www.w3.org/2000/svg" width="23.58" height="20.632" viewBox="0 0 23.58 20.632">
  <path id="Icon_awesome-wallet" data-name="Icon awesome-wallet" d="M21.24,5.984H3.684a.737.737,0,1,1,0-1.474H21.369a.737.737,0,0,0,.737-.737A2.211,2.211,0,0,0,19.9,1.563H2.947A2.947,2.947,0,0,0,0,4.51V19.247a2.947,2.947,0,0,0,2.947,2.947H21.24a2.28,2.28,0,0,0,2.34-2.211V8.194A2.28,2.28,0,0,0,21.24,5.984Zm-2.082,9.579a1.474,1.474,0,1,1,1.474-1.474A1.474,1.474,0,0,1,19.159,15.563Z" transform="translate(0 -1.563)" fill="#0896ff"/>
  <path id="Icon_awesome-dollar-sign" data-name="Icon awesome-dollar-sign" d="M4.975,5.549,2.408,4.8a.7.7,0,0,1,.2-1.374H4.181a1.451,1.451,0,0,1,.813.25.371.371,0,0,0,.464-.048l.827-.808a.385.385,0,0,0-.043-.582,3.362,3.362,0,0,0-2.056-.713V.38A.381.381,0,0,0,3.805,0H3.045a.381.381,0,0,0-.38.38V1.522H2.6A2.6,2.6,0,0,0,.014,4.365a2.721,2.721,0,0,0,1.992,2.3l2.437.713a.7.7,0,0,1-.2,1.374H2.669a1.451,1.451,0,0,1-.813-.25.371.371,0,0,0-.464.048l-.827.808a.385.385,0,0,0,.043.582,3.362,3.362,0,0,0,2.056.713v1.141a.381.381,0,0,0,.38.38h.761a.381.381,0,0,0,.38-.38V10.646A2.685,2.685,0,0,0,6.7,8.917,2.611,2.611,0,0,0,4.975,5.549Z" transform="translate(5.664 6.328)" fill="#c7e6fd"/>
</svg>
