<svg xmlns="http://www.w3.org/2000/svg" width="34.234" height="33.49" viewBox="0 0 34.234 33.49">
  <g id="Group_5302" data-name="Group 5302" transform="translate(11105.761 8734)">
    <path id="Icon_awesome-mouse-pointer" data-name="Icon awesome-mouse-pointer" d="M10.2,11.114H6.622l1.885,4.592a.627.627,0,0,1-.319.81l-1.66.724a.6.6,0,0,1-.788-.328L3.949,12.551l-2.926,3.01A.6.6,0,0,1,0,15.127V.618A.6.6,0,0,1,1.022.184l9.6,9.878A.619.619,0,0,1,10.2,11.114Z" transform="translate(-11088.645 -8717.799)" fill="#7c5bee"/>
    <g id="Icon_ionic-ios-wifi" data-name="Icon ionic-ios-wifi" transform="translate(-11105.761 -8734)">
      <path id="Path_40726" data-name="Path 40726" d="M19.356,6.75A25.244,25.244,0,0,0,2.441,13.493a.608.608,0,0,0-.023.871l2.039,2.131a.627.627,0,0,0,.886.023,20.515,20.515,0,0,1,14.02-5.475,20.515,20.515,0,0,1,14.02,5.475.627.627,0,0,0,.886-.023l2.039-2.131a.609.609,0,0,0-.023-.871A25.312,25.312,0,0,0,19.356,6.75Z" transform="translate(-2.246 -6.75)" fill="#7c5bee"/>
      <path id="Path_40727" data-name="Path 40727" d="M7.974,19.913l2.184,2.161a.626.626,0,0,0,.855.023,11.878,11.878,0,0,1,15.716,0,.626.626,0,0,0,.855-.023l2.184-2.161a.61.61,0,0,0-.023-.893,16.285,16.285,0,0,0-21.764,0A.622.622,0,0,0,7.974,19.913Z" transform="translate(-1.769 -6.053)" fill="#7c5bee"/>
    </g>
  </g>
</svg>
