<svg xmlns="http://www.w3.org/2000/svg" width="31" height="27.783" viewBox="0 0 31 27.783">
  <g id="Group_256" data-name="Group 256" transform="translate(107 -2050)">
    <path id="Icon_feather-message-circle" data-name="Icon feather-message-circle" d="M29.314,16.218a11.552,11.552,0,0,1-1.241,5.239A11.718,11.718,0,0,1,17.6,27.936a11.552,11.552,0,0,1-5.239-1.241L4.5,29.314l2.619-7.858a11.552,11.552,0,0,1-1.241-5.239A11.718,11.718,0,0,1,12.358,5.741,11.552,11.552,0,0,1,17.6,4.5h.689A11.69,11.69,0,0,1,29.314,15.529Z" transform="translate(-111.5 2045.5)" fill="#d9d9d9"/>
    <path id="Icon_feather-message-circle-2" data-name="Icon feather-message-circle" d="M4.5,13.28a8.656,8.656,0,0,0,.93,3.925,8.78,8.78,0,0,0,7.85,4.855,8.656,8.656,0,0,0,3.925-.93l5.888,1.963L21.13,17.205a8.656,8.656,0,0,0,.93-3.925,8.78,8.78,0,0,0-4.855-7.85A8.656,8.656,0,0,0,13.28,4.5h-.516A8.759,8.759,0,0,0,4.5,12.763Z" transform="translate(-99.093 2054.69)" fill="#7a7a7a"/>
  </g>
</svg>
