<svg id="Group_5314" data-name="Group 5314" xmlns="http://www.w3.org/2000/svg" xmlns:xlink="http://www.w3.org/1999/xlink" width="14.592" height="17.5" viewBox="0 0 14.592 17.5">
  <defs>
    <clipPath id="clip-path">
      <rect id="Rectangle_2265" data-name="Rectangle 2265" width="14.592" height="17.5" fill="#bdbdbd"/>
    </clipPath>
  </defs>
  <g id="Group_5279" data-name="Group 5279" transform="translate(0 0)" clip-path="url(#clip-path)">
    <path id="Path_40168" data-name="Path 40168" d="M2.73,68.25c-.211-.042-.425-.071-.632-.13A2.741,2.741,0,0,1,.01,65.479a9.392,9.392,0,0,1,.6-3.919,3.636,3.636,0,0,1,1.631-1.97A3.4,3.4,0,0,1,3.837,59.2a.95.95,0,0,1,.509.178c.256.16.507.328.763.486a3.892,3.892,0,0,0,4.377,0A4.924,4.924,0,0,0,10,59.53a1.644,1.644,0,0,1,1.472-.255,3.25,3.25,0,0,1,2.254,1.75,7.646,7.646,0,0,1,.8,2.839,11.437,11.437,0,0,1,.066,1.518,2.81,2.81,0,0,1-2.6,2.835.969.969,0,0,0-.131.033Z" transform="translate(0 -50.75)" fill="#bdbdbd"/>
    <path id="Path_40169" data-name="Path 40169" d="M29.237,4.211A4.215,4.215,0,1,1,25.019,0a4.21,4.21,0,0,1,4.218,4.211" transform="translate(-17.835 0)" fill="#bdbdbd"/>
  </g>
</svg>
