<svg xmlns="http://www.w3.org/2000/svg" xmlns:xlink="http://www.w3.org/1999/xlink" width="20" height="10" viewBox="0 0 20 10">
  <defs>
    <clipPath id="clip-path">
      <rect id="Rectangle_2264" data-name="Rectangle 2264" width="20" height="10" fill="#bdbdbd"/>
    </clipPath>
  </defs>
  <g id="Group_5320" data-name="Group 5320" transform="translate(0 0)">
    <g id="Group_5268" data-name="Group 5268" transform="translate(0 0)" clip-path="url(#clip-path)">
      <path id="Path_40166" data-name="Path 40166" d="M0,4.888a1.477,1.477,0,0,1,.417-.522,17.5,17.5,0,0,1,4.89-3.3A11.293,11.293,0,0,1,10.361.006,11.367,11.367,0,0,1,14.3.9a17.239,17.239,0,0,1,5.485,3.663.549.549,0,0,1-.013.88,17.024,17.024,0,0,1-5.958,3.84,10.752,10.752,0,0,1-4.137.707A11,11,0,0,1,6.167,9.28,17.147,17.147,0,0,1,.294,5.514,1.174,1.174,0,0,1,0,5.111Zm10,4A4.012,4.012,0,0,0,14.1,5a4.012,4.012,0,0,0-4.1-3.892A4.013,4.013,0,0,0,5.9,5.008,4.013,4.013,0,0,0,10,8.891" transform="translate(0 0)" fill="#bdbdbd"/>
      <path id="Path_40167" data-name="Path 40167" d="M63.858,20.037a1.828,1.828,0,0,0-.516.592,1.53,1.53,0,0,0,.156,1.73,1.7,1.7,0,0,0,1.693.655c.263-.038.263-.04.188.213A2.911,2.911,0,0,1,62.5,25.264a2.877,2.877,0,0,1-2.783-2.146,2.564,2.564,0,0,1,1.012-2.781,2.886,2.886,0,0,1,3.023-.367.608.608,0,0,1,.069.034c.01.006.016.016.031.033" transform="translate(-52.566 -17.489)" fill="#bdbdbd"/>
    </g>
  </g>
</svg>
