<svg xmlns="http://www.w3.org/2000/svg" xmlns:xlink="http://www.w3.org/1999/xlink" width="57"  height="56" viewBox="14 12 57 56">
  <defs>
    <linearGradient id="linear-gradient" x1="1.073" x2="0" y2="1" gradientUnits="objectBoundingBox">
      <stop offset="0" stop-color="#ee61c9"/>
      <stop offset="0.376" stop-color="#7c5bee"/>
      <stop offset="0.661" stop-color="#5882dc"/>
      <stop offset="1" stop-color="#53d0a4"/>
    </linearGradient>
    <filter id="Rectangle_2316" x="2" y="0" width="70" height="81" filterUnits="userSpaceOnUse">
      <feOffset dy="3" input="SourceAlpha"/>
      <feGaussianBlur stdDeviation="10" result="blur"/>
      <feFlood flood-color="#a6adb9" flood-opacity="0.051"/>
      <feComposite operator="in" in2="blur"/>
      <feComposite in="SourceGraphic"/>
    </filter>
    <filter id="Rectangle_2317" x="15" y="6" width="70" height="75" filterUnits="userSpaceOnUse">
      <feOffset dy="3" input="SourceAlpha"/>
      <feGaussianBlur stdDeviation="10" result="blur-2"/>
      <feFlood flood-color="#a6adb9" flood-opacity="0.051"/>
      <feComposite operator="in" in2="blur-2"/>
      <feComposite in="SourceGraphic"/>
    </filter>
    <filter id="Rectangle_2318" x="0" y="24" width="87" height="62" filterUnits="userSpaceOnUse">
      <feOffset dy="3" input="SourceAlpha"/>
      <feGaussianBlur stdDeviation="10" result="blur-3"/>
      <feFlood flood-color="#a6adb9" flood-opacity="0.051"/>
      <feComposite operator="in" in2="blur-3"/>
      <feComposite in="SourceGraphic"/>
    </filter>
  </defs>
  <g id="Group_5427" data-name="Group 5427" transform="translate(-6.999 -157)">
    <rect id="Rectangle_2319" data-name="Rectangle 2319" width="55" height="55" rx="8" transform="translate(22 170)" opacity="0.4" fill="url(#linear-gradient)"/>
    <g id="Group_5330" data-name="Group 5330" transform="translate(13195.828 8960.223)">
      <g transform="matrix(1, 0, 0, 1, -13188.83, -8803.22)" filter="url(#Rectangle_2316)">
        <path id="Rectangle_2316-2" data-name="Rectangle 2316" d="M5,0H5a5,5,0,0,1,5,5V19.636A1.364,1.364,0,0,1,8.636,21H1.364A1.364,1.364,0,0,1,0,19.636V5A5,5,0,0,1,5,0Z" transform="translate(32 27)"/>
      </g>
      <g transform="matrix(1, 0, 0, 1, -13188.83, -8803.22)" filter="url(#Rectangle_2317)">
        <path id="Rectangle_2317-2" data-name="Rectangle 2317" d="M5,0H5a5,5,0,0,1,5,5v8.636A1.364,1.364,0,0,1,8.636,15H1.364A1.364,1.364,0,0,1,0,13.636V5A5,5,0,0,1,5,0Z" transform="translate(45 33)" opacity="0.4"/>
      </g>
      <g transform="matrix(1, 0, 0, 1, -13188.83, -8803.22)" filter="url(#Rectangle_2318)">
        <rect id="Rectangle_2318-2" data-name="Rectangle 2318" width="27" height="2" rx="1" transform="translate(30 51)"/>
      </g>
    </g>
  </g>
</svg>
