<svg xmlns="http://www.w3.org/2000/svg" xmlns:xlink="http://www.w3.org/1999/xlink" width="59"  height="59" viewBox="15 10 59 58">
  <defs>
    <filter id="Rectangle_2316" x="2" y="0" width="70" height="81" filterUnits="userSpaceOnUse">
      <feOffset dy="3" input="SourceAlpha"/>
      <feGaussianBlur stdDeviation="10" result="blur"/>
      <feFlood flood-color="#a6adb9" flood-opacity="0.051"/>
      <feComposite operator="in" in2="blur"/>
      <feComposite in="SourceGraphic"/>
    </filter>
    <filter id="Rectangle_2317" x="15" y="6" width="70" height="75" filterUnits="userSpaceOnUse">
      <feOffset dy="3" input="SourceAlpha"/>
      <feGaussianBlur stdDeviation="10" result="blur-2"/>
      <feFlood flood-color="#a6adb9" flood-opacity="0.051"/>
      <feComposite operator="in" in2="blur-2"/>
      <feComposite in="SourceGraphic"/>
    </filter>
    <filter id="Rectangle_2318" x="0" y="24" width="87" height="62" filterUnits="userSpaceOnUse">
      <feOffset dy="3" input="SourceAlpha"/>
      <feGaussianBlur stdDeviation="10" result="blur-3"/>
      <feFlood flood-color="#a6adb9" flood-opacity="0.051"/>
      <feComposite operator="in" in2="blur-3"/>
      <feComposite in="SourceGraphic"/>
    </filter>
  </defs>
  <g id="Group_5330" data-name="Group 5330" transform="translate(13188.829 8803.223)">
    <g transform="matrix(1, 0, 0, 1, -13188.83, -8803.22)" filter="url(#Rectangle_2316)">
      <path id="Rectangle_2316-2" data-name="Rectangle 2316" d="M5,0H5a5,5,0,0,1,5,5V19.636A1.364,1.364,0,0,1,8.636,21H1.364A1.364,1.364,0,0,1,0,19.636V5A5,5,0,0,1,5,0Z" transform="translate(32 27)" fill="#7a7a7a"/>
    </g>
    <g transform="matrix(1, 0, 0, 1, -13188.83, -8803.22)" filter="url(#Rectangle_2317)">
      <path id="Rectangle_2317-2" data-name="Rectangle 2317" d="M5,0H5a5,5,0,0,1,5,5v8.636A1.364,1.364,0,0,1,8.636,15H1.364A1.364,1.364,0,0,1,0,13.636V5A5,5,0,0,1,5,0Z" transform="translate(45 33)" fill="#d9d9d9"/>
    </g>
    <g transform="matrix(1, 0, 0, 1, -13188.83, -8803.22)" filter="url(#Rectangle_2318)">
      <rect id="Rectangle_2318-2" data-name="Rectangle 2318" width="27" height="2" rx="1" transform="translate(30 51)" fill="#7a7a7a"/>
    </g>
  </g>
</svg>
