<svg id="Group_253" data-name="Group 253" xmlns="http://www.w3.org/2000/svg" width="30.607" height="35.708" viewBox="0 0 30.607 35.708">
  <path id="Polygon_1" data-name="Polygon 1" d="M23.909,0a5,5,0,0,1,4.319,2.481l6.01,10.3a5,5,0,0,1,0,5.039l-6.01,10.3a5,5,0,0,1-4.319,2.481H11.8A5,5,0,0,1,7.48,28.126l-6.01-10.3a5,5,0,0,1,0-5.039l6.01-10.3A5,5,0,0,1,11.8,0Z" transform="translate(0 35.708) rotate(-90)" fill="#53d0a4"/>
  <path id="Icon_metro-user" data-name="Icon metro-user" d="M9.12,10.307v-.94A5.092,5.092,0,0,0,11.4,5.13C11.4,2.3,11.4,0,7.98,0S4.56,2.3,4.56,5.13A5.092,5.092,0,0,0,6.84,9.367v.94C2.973,10.623,0,12.523,0,14.82H15.961c0-2.3-2.973-4.2-6.84-4.514Z" transform="translate(7.461 9.174)" fill="#cbf1e3"/>
</svg>
