<svg xmlns="http://www.w3.org/2000/svg" xmlns:xlink="http://www.w3.org/1999/xlink" width="47" height="24" viewBox="0 0 47 24">
  <defs>
    <clipPath id="clip-path">
      <rect id="Rectangle_2264" data-name="Rectangle 2264" width="47" height="24" transform="translate(0.316 -0.342)" fill="#53d0a4"/>
    </clipPath>
  </defs>
  <g id="Group_5290" data-name="Group 5290" transform="translate(-0.316 0.242)">
    <g id="Group_5268" data-name="Group 5268" transform="translate(0 0.1)" clip-path="url(#clip-path)">
      <path id="Path_40166" data-name="Path 40166" d="M0,11.662a3.523,3.523,0,0,1,.994-1.246A41.74,41.74,0,0,1,12.661,2.549,26.941,26.941,0,0,1,24.718.016a27.117,27.117,0,0,1,9.4,2.139A41.126,41.126,0,0,1,47.2,10.894a1.31,1.31,0,0,1-.032,2.1,40.614,40.614,0,0,1-14.213,9.162,25.65,25.65,0,0,1-9.869,1.688,26.239,26.239,0,0,1-8.376-1.7A40.908,40.908,0,0,1,.7,13.155a2.8,2.8,0,0,1-.7-.962Zm23.867,9.548a9.572,9.572,0,0,0,9.779-9.281,9.572,9.572,0,0,0-9.774-9.286,9.573,9.573,0,0,0-9.8,9.3,9.575,9.575,0,0,0,9.8,9.264" transform="translate(0 -0.198)" fill="#53d0a4"/>
      <path id="Path_40167" data-name="Path 40167" d="M69.706,20.5a4.361,4.361,0,0,0-1.232,1.413,3.649,3.649,0,0,0,.371,4.128,4.064,4.064,0,0,0,4.04,1.562c.628-.09.627-.095.449.509a6.944,6.944,0,0,1-6.857,4.86,6.862,6.862,0,0,1-6.638-5.12,6.117,6.117,0,0,1,2.415-6.634,6.885,6.885,0,0,1,7.212-.876,1.452,1.452,0,0,1,.166.08c.023.013.038.039.075.079" transform="translate(-42.767 -14.616)" fill="#53d0a4"/>
    </g>
  </g>
</svg>
