<svg xmlns="http://www.w3.org/2000/svg" width="51" height="51" viewBox="0 0 51 51">
  <g id="Group_5413" data-name="Group 5413" transform="translate(-1369 -146)">
    <rect id="Rectangle_1717" data-name="Rectangle 1717" width="51" height="51" rx="14" transform="translate(1369 146)" fill="#53d0a4" opacity="0.3"/>
    <g id="Group_5337" data-name="Group 5337" transform="translate(-0.781 -2.36)">
      <path id="Icon_material-group" data-name="Icon material-group" d="M5.542,9.065A1.929,1.929,0,1,0,3.613,7.137,1.921,1.921,0,0,0,5.542,9.065Zm0,1.286c-1.5,0-4.5.752-4.5,2.25v1.607h9V12.6c0-1.5-3-2.25-4.5-2.25Z" transform="translate(1400.958 167.792)" fill="#53d0a4"/>
      <g id="Group_5332" data-name="Group 5332" transform="translate(1378.782 160.579)">
        <path id="Path_40673" data-name="Path 40673" d="M15.9,0h.608a.2.2,0,0,0,.047.039,1.083,1.083,0,0,1,.8,1.127c.005.326.012.652,0,.978-.008.186.057.229.233.227.651-.01,1.3,0,1.952,0a2.769,2.769,0,0,1,.582.047,2.227,2.227,0,0,1,1.768,2.244q0,7.66,0,15.321c0,.065,0,.131,0,.2a2.213,2.213,0,0,1-.753,1.536,2.6,2.6,0,0,1-1.153.558H1.92c-.011-.009-.021-.024-.033-.026A2.321,2.321,0,0,1,0,19.846c.031-3.566.011-7.133.011-10.7,0-1.515-.006-3.03,0-4.545A2.189,2.189,0,0,1,2.1,2.383c.642-.036,1.287-.013,1.931-.016.492,0,.491,0,.492-.482A8.067,8.067,0,0,1,4.539.908,1.1,1.1,0,0,1,5.393,0h.564A.256.256,0,0,0,6.01.035a1.069,1.069,0,0,1,.817,1.133c0,.333.006.666,0,1,0,.144.029.2.189.2q3.925-.007,7.849,0c.148,0,.181-.055.178-.189-.007-.347-.006-.7,0-1.043a1.127,1.127,0,0,1,.388-.884A2.532,2.532,0,0,1,15.9,0M10.95,7.719q-4.1,0-8.2,0c-.179,0-.25.029-.25.234q.01,5.8,0,11.591c0,.2.064.237.247.237q8.2-.007,16.408,0c.206,0,.249-.064.248-.257q-.008-5.773,0-11.547c0-.218-.067-.259-.269-.259q-4.091.01-8.182,0" transform="translate(0 1.782)" fill="#53d0a4"/>
      </g>
      <text id="_7" data-name="7" transform="translate(1387 180)" fill="#53d0a4" font-size="11" font-family="SegoeUI-Semibold, Segoe UI" font-weight="600"><tspan x="0" y="0">7</tspan></text>
    </g>
  </g>
</svg>
