<svg xmlns="http://www.w3.org/2000/svg" width="30.742" height="19.563" viewBox="0 0 30.742 19.563">
  <g id="Group_5341" data-name="Group 5341" transform="translate(-33.257 -318.217)">
    <path id="Icon_material-group" data-name="Icon material-group" d="M22,13.593A4.192,4.192,0,1,0,17.81,9.4,4.175,4.175,0,0,0,22,13.593Zm-11.179,0A4.192,4.192,0,1,0,6.631,9.4a4.175,4.175,0,0,0,4.192,4.192Zm0,2.795c-3.256,0-9.782,1.635-9.782,4.891v3.493H20.6V21.278c0-3.256-6.526-4.891-9.782-4.891Zm11.179,0c-.405,0-.866.028-1.355.07A5.9,5.9,0,0,1,23.4,21.278v3.493h8.384V21.278c0-3.256-6.526-4.891-9.782-4.891Z" transform="translate(32.215 313.009)" fill="#d9d9d9"/>
    <path id="Icon_material-group-2" data-name="Icon material-group" d="M10.823,13.593A4.192,4.192,0,1,0,6.631,9.4a4.175,4.175,0,0,0,4.192,4.192Zm0,2.795c-3.256,0-9.782,1.635-9.782,4.891v3.493H20.6V21.278c0-3.256-6.526-4.891-9.782-4.891Z" transform="translate(32.215 313.009)" fill="#7a7a7a"/>
  </g>
</svg>
