<svg id="Group_251" data-name="Group 251" xmlns="http://www.w3.org/2000/svg" width="23.58" height="20.632" viewBox="0 0 23.58 20.632">
  <path id="Icon_awesome-wallet" data-name="Icon awesome-wallet" d="M21.24,5.984H3.684a.737.737,0,1,1,0-1.474H21.369a.737.737,0,0,0,.737-.737A2.211,2.211,0,0,0,19.9,1.563H2.947A2.947,2.947,0,0,0,0,4.51V19.247a2.947,2.947,0,0,0,2.947,2.947H21.24a2.28,2.28,0,0,0,2.34-2.211V8.194A2.28,2.28,0,0,0,21.24,5.984Zm-2.082,9.579a1.474,1.474,0,1,1,1.474-1.474A1.474,1.474,0,0,1,19.159,15.563Z" transform="translate(0 -1.563)" fill="#7c5bee"/>
  <path id="Path_863" data-name="Path 863" d="M935.953,1340.95l3.591,4.217,6.408-8" transform="translate(-930.647 -1328.598)" fill="none" stroke="#eae5ff" strokeLinecap="round" stroke-linejoin="round" stroke-width="3"/>
</svg>
